# xmcd
# Track frame offsets:
# 150
# 12872
# 24643
# 36279
# 47833
# 66951
# 80881
# 92192
# 106367
# 124386
#
# Disc length: 1817 seconds
# Revision: 0
# Processed by: cddbd v1.5.1PL0 Copyright (c) Steve Scherf et al.
# Submitted via: VisiTrax 2.9.10.228 - For more info visit www.synapsa.com
#
DISCID=8a07170a
DTITLE=Johnny Cash and Waylon Jennings - Heroes
DYEAR=1986
DGENRE=Country
TTITLE0=Folks Out On The Road
TTITLE1=I'm Never Gonna Roam Again
TTITLE2=American By Birth
TTITLE3=Field Of Diamonds
TTITLE4=Heroes
TTITLE5=Even Cowgirls Get The Blues
TTITLE6=Love Is The way
TTITLE7=The Ballad Of Forty Dollars
TTITLE8=I'll Always Love You (In My Own Crazy Way)
TTITLE9=One Too Many Mornings
EXTD=
EXTT0=
EXTT1=
EXTT2=
EXTT3=
EXTT4=
EXTT5=
EXTT6=
EXTT7=
EXTT8=
EXTT9=
PLAYORDER=
